<svg xmlns="http://www.w3.org/2000/svg" width="720" height="176" viewBox="0 0 720 176" role="img" aria-labelledby="title desc">
  <title id="title">Open Source Signal</title>
  <desc id="desc">Public repositories, earned stars, contributions, and current activity streak</desc>
  <defs>
    <linearGradient id="agrad" x1="0" y1="0" x2="1" y2="0">
      <stop offset="0%" stop-color="#59E7D1"/>
      <stop offset="100%" stop-color="#E85B9C"/>
    </linearGradient>
  </defs>
  <rect width="720" height="176" fill="#07101C" rx="16"/>
  <rect x="18" y="18" width="4" height="20" rx="2" fill="url(#agrad)"/>
  <text x="34" y="32" font-family="Consolas,Menlo,monospace" font-size="14" font-weight="700" letter-spacing="2" fill="#59E7D1">OPEN SOURCE SIGNAL</text>
  <text x="702" y="32" text-anchor="end" font-family="Consolas,Menlo,monospace" font-size="9" letter-spacing="1.2" fill="#7691A5">LIVE / GITHUB API</text>
  <path d="M18 50 H702" stroke="#17364A"/>
  <rect x="16" y="66" width="163" height="92" rx="8" fill="#161b22" stroke="#59E7D1" stroke-opacity="0.55"/>
  <rect x="91" y="84" width="12" height="12" rx="2" fill="none" stroke="#59E7D1" stroke-width="1.5"/>
  <line x1="91" y1="88" x2="103" y2="88" stroke="#59E7D1" stroke-width="1.5"/>
  <text x="97" y="125" text-anchor="middle" font-family="Segoe UI,Arial,sans-serif" font-size="21" font-weight="700" fill="#EAF3F8">69</text>
  <text x="97" y="146" text-anchor="middle" font-family="Consolas,Menlo,monospace" font-size="9" letter-spacing="1.5" fill="#7691A5">PUBLIC REPOS</text>
  <rect x="191" y="66" width="163" height="92" rx="8" fill="#161b22" stroke="#E85B9C" stroke-opacity="0.55"/>
  <polygon points="272.0,83.0 273.7,87.7 278.7,87.8 274.8,90.9 276.1,95.7 272.0,92.9 267.9,95.7 269.2,90.9 265.3,87.8 270.3,87.7" fill="#FFC94D"/>
  <text x="272" y="125" text-anchor="middle" font-family="Segoe UI,Arial,sans-serif" font-size="21" font-weight="700" fill="#EAF3F8">110</text>
  <text x="272" y="146" text-anchor="middle" font-family="Consolas,Menlo,monospace" font-size="9" letter-spacing="1.5" fill="#7691A5">TOTAL STARS</text>
  <rect x="366" y="66" width="163" height="92" rx="8" fill="#161b22" stroke="#59E7D1" stroke-opacity="0.55"/>
  <rect x="440" y="91" width="4" height="6" fill="#27C93F" rx="1"/>
  <rect x="446" y="87" width="4" height="10" fill="#27C93F" rx="1"/>
  <rect x="452" y="83" width="4" height="14" fill="#27C93F" rx="1"/>
  <text x="447" y="125" text-anchor="middle" font-family="Segoe UI,Arial,sans-serif" font-size="21" font-weight="700" fill="#EAF3F8">748</text>
  <text x="447" y="146" text-anchor="middle" font-family="Consolas,Menlo,monospace" font-size="9" letter-spacing="1.5" fill="#7691A5">CONTRIBUTIONS</text>
  <rect x="541" y="66" width="163" height="92" rx="8" fill="#161b22" stroke="#E85B9C" stroke-opacity="0.55"/>
  <polygon points="624,82 618,91 621.5,91 620,98 626,89 622.5,89" fill="#E85B9C"/>
  <text x="622" y="125" text-anchor="middle" font-family="Segoe UI,Arial,sans-serif" font-size="21" font-weight="700" fill="#EAF3F8">2 DAYS</text>
  <text x="622" y="146" text-anchor="middle" font-family="Consolas,Menlo,monospace" font-size="9" letter-spacing="1.5" fill="#7691A5">LONGEST 5</text>
</svg>