<svg xmlns="http://www.w3.org/2000/svg" width="720" height="164" viewBox="0 0 720 164">
  <defs>
    <linearGradient id="agrad" x1="0" y1="0" x2="1" y2="0">
      <stop offset="0%" stop-color="#00E5FF"/>
      <stop offset="100%" stop-color="#FF2E97"/>
    </linearGradient>
  </defs>
  <rect width="720" height="164" fill="#0d1117" rx="12"/>
  <rect width="720" height="44" rx="12" fill="url(#agrad)" opacity="0.15"/>
  <text x="16" y="29" font-family="Consolas,Menlo,monospace" font-size="15" font-weight="700" letter-spacing="2" fill="#FF2E97">ACHIEVEMENTS UNLOCKED</text>
  <rect x="16" y="58" width="163" height="90" rx="8" fill="#161b22" stroke="#00E5FF" stroke-opacity="0.55"/>
  <polygon points="97.0,75.0 98.7,79.7 103.7,79.8 99.8,82.9 101.1,87.7 97.0,84.9 92.9,87.7 94.2,82.9 90.3,79.8 95.3,79.7" fill="#FFC94D"/>
  <text x="97" y="114" text-anchor="middle" font-family="Segoe UI,Helvetica,Arial,sans-serif" font-size="21" font-weight="700" fill="#c9d1d9">105</text>
  <text x="97" y="134" text-anchor="middle" font-family="Consolas,Menlo,monospace" font-size="9" letter-spacing="1.5" fill="#8b949e">TOTAL STARS</text>
  <rect x="191" y="58" width="163" height="90" rx="8" fill="#161b22" stroke="#FF2E97" stroke-opacity="0.55"/>
  <rect x="266" y="76" width="12" height="12" rx="2" fill="none" stroke="#00E5FF" stroke-width="1.5"/>
  <line x1="266" y1="80" x2="278" y2="80" stroke="#00E5FF" stroke-width="1.5"/>
  <text x="272" y="114" text-anchor="middle" font-family="Segoe UI,Helvetica,Arial,sans-serif" font-size="21" font-weight="700" fill="#c9d1d9">26</text>
  <text x="272" y="134" text-anchor="middle" font-family="Consolas,Menlo,monospace" font-size="9" letter-spacing="1.5" fill="#8b949e">REPOSITORIES</text>
  <rect x="366" y="58" width="163" height="90" rx="8" fill="#161b22" stroke="#00E5FF" stroke-opacity="0.55"/>
  <polygon points="449,74 443,83 446.5,83 445,90 451,81 447.5,81" fill="#FF2E97"/>
  <text x="447" y="114" text-anchor="middle" font-family="Segoe UI,Helvetica,Arial,sans-serif" font-size="21" font-weight="700" fill="#c9d1d9">5 DAYS</text>
  <text x="447" y="134" text-anchor="middle" font-family="Consolas,Menlo,monospace" font-size="9" letter-spacing="1.5" fill="#8b949e">LONGEST 5</text>
  <rect x="541" y="58" width="163" height="90" rx="8" fill="#161b22" stroke="#FF2E97" stroke-opacity="0.55"/>
  <rect x="615" y="83" width="4" height="6" fill="#27C93F" rx="1"/>
  <rect x="621" y="79" width="4" height="10" fill="#27C93F" rx="1"/>
  <rect x="627" y="75" width="4" height="14" fill="#27C93F" rx="1"/>
  <text x="622" y="114" text-anchor="middle" font-family="Segoe UI,Helvetica,Arial,sans-serif" font-size="21" font-weight="700" fill="#c9d1d9">747</text>
  <text x="622" y="134" text-anchor="middle" font-family="Consolas,Menlo,monospace" font-size="9" letter-spacing="1.5" fill="#8b949e">CONTRIBUTIONS</text>
</svg>